# xmcd
#
# Track frame offsets:
#	150
#	29335
#	68491
#	114680
#	145593
#	157881
#	174061
#	195613
#	226019
#
# Disc length: 3356 seconds
#
# Revision: 1
# Processed by: cddbd v1.5.2PL0 Copyright (c) Steve Scherf et al.
# Submitted via: audiograbber 1.83.01
#
DISCID=620d1a09
DTITLE=Grateful Dead - 69-08-21 Green Lake Aqua Theatre, Seattle WA
DYEAR=1900
DGENRE=
TTITLE0=Casey Jones
TTITLE1=Easy Wind
TTITLE2=Morning Dew
TTITLE3=High Time
TTITLE4=Mama Tried
TTITLE5=Me and My Uncle
TTITLE6=New Minglewood Blues
TTITLE7=China Cat Sunflower
TTITLE8=Doin' The Rag
EXTD=
EXTT0=
EXTT1=
EXTT2=
EXTT3=
EXTT4=
EXTT5=
EXTT6=
EXTT7=
EXTT8=
PLAYORDER=
